# xmcd CD database file
#
# Track frame offsets:
#	150
#	23357
#	44480
#	64343
#	79143
#	98703
#	123653
#	140315
#	161665
#	182640
#	200365
#	220917
#	246367
#	288661
#	309336
#	328284
#
# Disc length: 4646 seconds
#
# Revision: 0
# Processed by: cddbd v1.5.2PL0 Copyright (c) Steve Scherf et al.
# Submitted via: CDex 1.51
#
DISCID=ec122410
DTITLE=Joe Cocker - Joe Cocker: Star Series
DYEAR=2000
DGENRE=Blues
TTITLE0=Unchain my heart
TTITLE1=Now that the magic has gone
TTITLE2=Shelter me
TTITLE3=On nights of sin
TTITLE4=Now that you're gone
TTITLE5=Please no more
TTITLE6=Fever
TTITLE7=Have a little faith
TTITLE8=Soul time
TTITLE9=Up where we belong
TTITLE10=Woman to woman
TTITLE11=Five women
TTITLE12=With a little help from my friends
TTITLE13=Angeline
TTITLE14=Feeling Alright
TTITLE15=High time we went
EXTD=YEAR: 2000
EXTT0=
EXTT1=
EXTT2=
EXTT3=
EXTT4=
EXTT5=
EXTT6=
EXTT7=
EXTT8=
EXTT9=
EXTT10=
EXTT11=
EXTT12=
EXTT13=
EXTT14=
EXTT15=
PLAYORDER=
